<?xml version="1.0" encoding="UTF-8"?>
<svg version="1.1" xmlns="http://www.w3.org/2000/svg" width="200" height="42">
<path d="M0 0 C0.86625 0.4640625 0.86625 0.4640625 1.75 0.9375 C3.88371067 1.9450856 5.6614904 2.68819872 8 3 C8.66 2.34 9.32 1.68 10 1 C11.32 1 12.64 1 14 1 C14.33 4.3 14.66 7.6 15 11 C13.68 10.67 12.36 10.34 11 10 C11 12.31 11 14.62 11 17 C11.680625 16.195625 12.36125 15.39125 13.0625 14.5625 C16.53731352 11.5312797 18.4514208 11.16540288 23 11 C25.4375 11.4375 25.4375 11.4375 27 12 C27 13.98 27 15.96 27 18 C25.68 17.67 24.36 17.34 23 17 C23 16.34 23 15.68 23 15 C21.02 15.33 19.04 15.66 17 16 C16.979375 17.27875 16.95875 18.5575 16.9375 19.875 C16.92589844 20.59429688 16.91429688 21.31359375 16.90234375 22.0546875 C16.87350758 24.08185404 16.87350758 24.08185404 18 26 C18.928125 26 19.85625 26 20.8125 26 C22.875 26 24.9375 26 27 26 C27 26.99 27 27.98 27 29 C23.59289812 31.41336383 20.77743504 31.09345842 16.83984375 30.4921875 C14.53813676 29.87644423 13.35755881 28.95149079 12 27 C11.87625 27.61875 11.7525 28.2375 11.625 28.875 C11 31 11 31 9 33 C3.43181818 32.43181818 3.43181818 32.43181818 2 31 C1.81779973 25.26069164 2.15720388 19.7598361 2.87890625 14.06640625 C3.17608701 11.93653039 3.17608701 11.93653039 2 10 C0.68 10.33 -0.64 10.66 -2 11 C-1.125 3.375 -1.125 3.375 0 0 Z M11 3 C10.01 4.485 10.01 4.485 9 6 C9.99 6.33 10.98 6.66 12 7 C11.67 5.68 11.34 4.36 11 3 Z M1 4 C1.33 4.99 1.66 5.98 2 7 C2.99 6.34 3.98 5.68 5 5 C3.68 4.67 2.36 4.34 1 4 Z M5 7 C5 8.32 5 9.64 5 11 C6.32 10.67 7.64 10.34 9 10 C8.67 9.01 8.34 8.02 8 7 C7.01 7 6.02 7 5 7 Z M6 13 C5.63455089 14.89369084 5.28310825 16.79008782 4.9375 18.6875 C4.74027344 19.74324219 4.54304688 20.79898437 4.33984375 21.88671875 C4.00654524 24.94003956 4.07947806 27.08063042 5 30 C5.66 30.33 6.32 30.66 7 31 C7.66 30.67 8.32 30.34 9 30 C9.12036664 24.22240116 8.8320582 18.72040011 8 13 C7.34 13 6.68 13 6 13 Z " fill="#FF5400" transform="translate(65,4)"/>
<path d="M0 0 C2.43816585 -0.0809723 4.87364384 -0.14046972 7.3125 -0.1875 C8.34793945 -0.22520508 8.34793945 -0.22520508 9.40429688 -0.26367188 C14.48987145 -0.33737585 14.48987145 -0.33737585 16.9609375 1.296875 C18.70763794 4.15988775 18.28573492 6.74262196 18 10 C17 12.4375 17 12.4375 16 14 C16.99 15.485 16.99 15.485 18 17 C18 17.99 18 18.98 18 20 C18.99 20.33 19.98 20.66 21 21 C21 21.99 21 22.98 21 24 C19.02 24 17.04 24 15 24 C14.75765625 23.37351562 14.5153125 22.74703125 14.265625 22.1015625 C13.93046875 21.28429687 13.5953125 20.46703125 13.25 19.625 C12.92515625 18.81289063 12.6003125 18.00078125 12.265625 17.1640625 C10.80516056 14.66684861 9.66130399 14.01755741 7 13 C7 15.31 7 17.62 7 20 C7.99 20.33 8.98 20.66 10 21 C10 21.99 10 22.98 10 24 C6.7 24 3.4 24 0 24 C0 23.01 0 22.02 0 21 C0.66 20.67 1.32 20.34 2 20 C2.33 14.39 2.66 8.78 3 3 C2.01 2.67 1.02 2.34 0 2 C0 1.34 0 0.68 0 0 Z M7 3 C7 5.31 7 7.62 7 10 C9.41645782 10.16687448 9.41645782 10.16687448 12 10 C12.66 9.34 13.32 8.68 14 8 C13.59471099 5.21762345 13.59471099 5.21762345 12 3 C10.33382885 2.95936168 8.66611905 2.957279 7 3 Z " fill="#000000" transform="translate(126,11)"/>
<path d="M0 0 C2.31 0 4.62 0 7 0 C7 7.59 7 15.18 7 23 C7.99 23.33 8.98 23.66 10 24 C9.67 24.99 9.34 25.98 9 27 C6.72975032 27.08097324 4.45867925 27.13917704 2.1875 27.1875 C0.29064453 27.23970703 0.29064453 27.23970703 -1.64453125 27.29296875 C-5 27 -5 27 -6.88671875 25.67578125 C-9.3817227 21.92014373 -9.23004674 18.37088811 -9 14 C-8.14455592 11.36238076 -7.49752294 10.35537353 -5.25 8.75 C-2.42246362 7.80748787 0.03993304 7.8654515 3 8 C2.65213292 6.02463255 2.65213292 6.02463255 2 4 C1.34 3.67 0.68 3.34 0 3 C0 2.01 0 1.02 0 0 Z M-4 13 C-5.10140686 16.13477337 -5.12108083 17.6367575 -4.0625 20.8125 C-3.711875 21.534375 -3.36125 22.25625 -3 23 C-1.33388095 23.042721 0.33382885 23.04063832 2 23 C3.25949049 21.96593327 3.25949049 21.96593327 3.09765625 19.71484375 C3.08605469 18.79832031 3.07445312 17.88179687 3.0625 16.9375 C3.04896484 15.55884766 3.04896484 15.55884766 3.03515625 14.15234375 C3.02355469 13.44207031 3.01195312 12.73179688 3 12 C-0.48581856 10.7979936 -0.67992344 10.78661563 -4 13 Z " fill="#000000" transform="translate(168,8)"/>
<path d="M0 0 C1.98 0 3.96 0 6 0 C6.33 2.97 6.66 5.94 7 9 C8.0828125 8.6596875 8.0828125 8.6596875 9.1875 8.3125 C12 8 12 8 14.6875 9 C17.8893575 11.76917405 18.37656455 13.84376369 19 18 C18.39718855 22.018743 17.89965157 24.17972945 14.875 26.9375 C10.99432707 28.37166174 8.13233808 28.27097299 4 28 C3.34 27.67 2.68 27.34 2 27 C2 19.41 2 11.82 2 4 C1.01 3.67 0.02 3.34 -1 3 C-0.67 2.01 -0.34 1.02 0 0 Z M8 12 C5.75675164 13.81193006 5.75675164 13.81193006 5.8046875 16.3828125 C5.82789063 17.28773437 5.85109375 18.19265625 5.875 19.125 C5.89304687 20.03507812 5.91109375 20.94515625 5.9296875 21.8828125 C5.95289063 22.58148438 5.97609375 23.28015625 6 24 C8.91634129 24.2502157 8.91634129 24.2502157 12 24 C14.31332486 20.53001271 14.33957563 19.07490752 14 15 C13.34 14.01 12.68 13.02 12 12 C10.68 12 9.36 12 8 12 Z " fill="#F3570D" transform="translate(48,7)"/>
<path d="M0 0 C0.9796875 -0.00257812 1.959375 -0.00515625 2.96875 -0.0078125 C5.5 0.125 5.5 0.125 7.5 1.125 C7.5 3.435 7.5 5.745 7.5 8.125 C6.51 8.125 5.52 8.125 4.5 8.125 C4.17 6.805 3.84 5.485 3.5 4.125 C-0.955 4.62 -0.955 4.62 -5.5 5.125 C-6.61005147 11.75166068 -6.61005147 11.75166068 -5.4375 18.25 C-3.58876907 20.40302519 -3.58876907 20.40302519 -0.5625 20.5625 C2.27454334 20.15720809 4.08229872 19.61281617 6.5 18.125 C7.16 19.115 7.82 20.105 8.5 21.125 C5.27702775 23.64049054 3.08408663 25.04155905 -1 25.625 C-5.23113598 25.020552 -7.30210674 23.95104521 -10.5 21.125 C-13.09777974 16.26828136 -12.85728052 11.35197393 -11.5 6.125 C-8.12764463 0.90328846 -6.04543679 -0.01590904 0 0 Z " fill="#F2580C" transform="translate(16.5,9.875)"/>
<path d="M0 0 C2.31 0 4.62 0 7 0 C7.33 4.62 7.66 9.24 8 14 C9.65 13.67 11.3 13.34 13 13 C13.33 9.7 13.66 6.4 14 3 C13.01 2.67 12.02 2.34 11 2 C11 1.34 11 0.68 11 0 C13.31 0 15.62 0 18 0 C18 4.95 18 9.9 18 15 C18.99 15 19.98 15 21 15 C20.67 16.32 20.34 17.64 20 19 C18.35 19 16.7 19 15 19 C15 18.34 15 17.68 15 17 C14.443125 17.33 13.88625 17.66 13.3125 18 C10.61141671 19.16803602 8.91462786 19.37367024 6 19 C4.359375 17.8984375 4.359375 17.8984375 3 16 C2.70703125 12.86328125 2.70703125 12.86328125 2.8125 9.3125 C2.83957031 8.13300781 2.86664062 6.95351563 2.89453125 5.73828125 C2.92933594 4.83464844 2.96414062 3.93101563 3 3 C2.01 3 1.02 3 0 3 C0 2.01 0 1.02 0 0 Z " fill="#F2580C" transform="translate(26,16)"/>
<path d="M0 0 C1.875 1.6875 1.875 1.6875 3 4 C3 5.98 3 7.96 3 10 C-0.96 10 -4.92 10 -9 10 C-8.34 11.32 -7.68 12.64 -7 14 C-3.65747276 14.07427838 -1.1964086 14.06546953 2 13 C2.33 13.99 2.66 14.98 3 16 C-0.0963577 18.41902945 -2.26568274 19.26504353 -6.125 18.9375 C-10 18 -10 18 -12 16.5 C-13.53892122 12.65269695 -13.66895151 9.07914994 -13 5 C-9.57250941 -0.67308788 -6.33467459 -1.71564104 0 0 Z M-7 3 C-7.66 4.32 -8.32 5.64 -9 7 C-6.69 7 -4.38 7 -2 7 C-2.33 5.68 -2.66 4.36 -3 3 C-4.32 3 -5.64 3 -7 3 Z " fill="#F2570D" transform="translate(118,16)"/>
<path d="M0 0 C2.375 1.625 2.375 1.625 4 4 C4.25 7.25 4.25 7.25 4 10 C0.37 10 -3.26 10 -7 10 C-6.34 11.32 -5.68 12.64 -5 14 C-2.03 14 0.94 14 4 14 C4 14.99 4 15.98 4 17 C-0.32100896 19.22597431 -3.30317025 19.13071827 -8 18 C-9.875 16.9375 -9.875 16.9375 -11 15 C-12.02323896 10.11993725 -12.7308954 6.4214497 -10 2 C-6.85251017 -0.36061737 -3.83994229 -0.47999279 0 0 Z M-5 3 C-5.66 4.32 -6.32 5.64 -7 7 C-4.69 7 -2.38 7 0 7 C-0.66 5.68 -1.32 4.36 -2 3 C-2.99 3 -3.98 3 -5 3 Z " fill="#000000" transform="translate(191,16)"/>
<path d="M0 0 C1.99954746 -0.04254356 4.00041636 -0.04080783 6 0 C7.68300669 1.68300669 7.22809077 3.82008727 7.31640625 6.12890625 C7.37924805 7.68061523 7.37924805 7.68061523 7.44335938 9.26367188 C7.48267578 10.35228516 7.52199219 11.44089844 7.5625 12.5625 C7.60568359 13.65498047 7.64886719 14.74746094 7.69335938 15.87304688 C7.79982068 18.58189564 7.90183516 21.29083992 8 24 C8.66 24.33 9.32 24.66 10 25 C10 25.99 10 26.98 10 28 C6.37 28 2.74 28 -1 28 C-1 27.01 -1 26.02 -1 25 C-0.34 24.67 0.32 24.34 1 24 C1.33 17.4 1.66 10.8 2 4 C1.01 3.67 0.02 3.34 -1 3 C-0.67 2.01 -0.34 1.02 0 0 Z " fill="#F3580C" transform="translate(94,7)"/>
<path d="M0 0 C0 1.98 0 3.96 0 6 C-1.32 5.67 -2.64 5.34 -4 5 C-4 4.34 -4 3.68 -4 3 C-5.98 3.33 -7.96 3.66 -10 4 C-10.020625 5.27875 -10.04125 6.5575 -10.0625 7.875 C-10.07410156 8.59429687 -10.08570312 9.31359375 -10.09765625 10.0546875 C-10.12649242 12.08185404 -10.12649242 12.08185404 -9 14 C-8.071875 14 -7.14375 14 -6.1875 14 C-4.125 14 -2.0625 14 0 14 C0 14.99 0 15.98 0 17 C-3.38079221 19.39472782 -6.24668399 19.1720108 -10.1640625 18.53125 C-12 18 -12 18 -13.9375 16.375 C-15.96330182 11.84673711 -16.48321388 8.42279641 -14.875 3.6875 C-10.83389668 -2.1047481 -6.29362834 -1.06671667 0 0 Z " fill="#F3570D" transform="translate(92,16)"/>
<path d="M0 0 C2.31 0 4.62 0 7 0 C7.06058594 1.03640625 7.12117187 2.0728125 7.18359375 3.140625 C7.26803371 4.51042873 7.35267997 5.88021975 7.4375 7.25 C7.47681641 7.93191406 7.51613281 8.61382812 7.55664062 9.31640625 C7.77049652 12.70519971 8.17218075 15.68872298 9 19 C6.03 19 3.06 19 0 19 C0.33 17.68 0.66 16.36 1 15 C1.66 15 2.32 15 3 15 C2.88648483 13.18674449 2.75887039 11.37436643 2.625 9.5625 C2.55539063 8.55316406 2.48578125 7.54382813 2.4140625 6.50390625 C2.27742187 5.67761719 2.14078125 4.85132813 2 4 C1.34 3.67 0.68 3.34 0 3 C0 2.01 0 1.02 0 0 Z " fill="#000000" transform="translate(148,16)"/>
<path d="M0 0 C0.99 0.33 1.98 0.66 3 1 C2.67 2.65 2.34 4.3 2 6 C0.68 5.67 -0.64 5.34 -2 5 C-2 3.68 -2 2.36 -2 1 C-1.34 0.67 -0.68 0.34 0 0 Z " fill="#000000" transform="translate(152,8)"/>
</svg>
