<svg width="567" height="183" viewBox="0 0 567 183" fill="none" xmlns="http://www.w3.org/2000/svg">
<g clip-path="url(#clip0_312_455)">
<mask id="mask0_312_455" style="mask-type:luminance" maskUnits="userSpaceOnUse" x="0" y="54" width="567" height="76">
<path d="M567 54H0V129.845H567V54Z" fill="white"/>
</mask>
<g mask="url(#mask0_312_455)">
<path d="M326.752 72.8986C331.525 70.9668 335.711 68.6149 340.234 67.6073C347.268 66.0112 352.459 69.7908 353.13 77.0144C353.716 83.3977 353.381 89.8649 353.464 96.3321C353.464 98.2644 353.464 100.196 353.464 102.464C355.977 102.631 358.238 102.716 360.582 102.884C360.582 105.236 360.582 107.251 360.582 110.023C358.07 110.023 355.474 110.023 352.878 110.023C350.366 110.023 347.938 110.023 345.091 110.023C345.091 100.448 345.174 91.2926 345.091 82.0539C345.007 75.4183 341.992 73.3187 335.711 75.5022C329.18 77.7702 328.008 79.4502 328.008 86.2531C328.008 91.5449 328.008 96.8362 328.008 102.38C330.352 102.464 332.529 102.631 334.958 102.716C334.958 105.067 334.958 107.251 334.958 109.687C330.101 109.687 325.161 109.687 319.885 109.687C319.885 101.12 319.885 92.6369 319.885 84.1535C319.885 82.2217 319.717 80.206 319.298 78.3582C319.047 77.2661 318.21 75.9224 317.289 75.4183C313.521 73.4026 310.255 75.5022 307.073 77.1822C304.728 78.4421 302.216 79.4502 302.467 83.2299C302.886 89.4448 302.551 95.7447 302.551 102.38C304.979 102.464 307.324 102.631 309.752 102.716C309.752 105.067 309.752 107.251 309.752 109.687C302.3 109.687 294.763 109.687 287.059 109.687C287.059 107.587 287.059 105.404 287.059 102.8C289.153 102.631 291.497 102.548 294.01 102.38C294.01 93.4767 294.01 84.6576 294.01 75.4183C292 75.3344 289.99 75.2505 287.645 75.0826C287.645 72.7307 287.645 70.4627 287.645 68.0269C292.502 68.0269 297.275 68.0269 302.383 68.0269C302.467 69.5391 302.551 70.9668 302.551 71.9749C306.906 70.3788 311.176 68.2792 315.614 67.355C320.806 66.4313 324.742 68.8672 326.752 72.8986Z" fill="#19110D"/>
<path d="M218.56 72.8145C218.644 71.2184 218.811 69.7907 218.895 68.1951C224.003 68.1951 229.028 68.1951 234.219 68.1951C234.219 70.4626 234.219 72.6467 234.219 75.2503C232.042 75.2503 229.697 75.2503 226.934 75.2503C226.934 80.4577 227.018 85.1615 226.934 89.8647C226.85 98.012 226.766 106.075 226.431 114.222C226.18 119.514 223.165 123.293 218.811 126.065C209.683 131.777 197.709 131.189 188.079 124.301C189.837 122.37 191.512 120.438 193.271 118.422C199.802 122.79 206.418 124.385 213.452 120.27C218.057 117.582 219.063 114.306 218.476 105.067C212.866 109.771 206.753 112.879 199.635 110.779C195.699 109.603 191.512 107.503 188.665 104.564C181.38 97.1722 181.212 83.7332 187.493 75.586C194.862 66.1789 203.319 65.3392 218.56 72.8145ZM191.931 89.5291C191.931 97.8441 197.374 103.891 204.994 103.891C212.866 103.976 218.895 97.5079 218.895 89.1928C218.811 81.1295 213.117 75.1664 205.497 75.0825C197.542 75.0825 191.931 81.1295 191.931 89.5291Z" fill="#EF5523"/>
<path d="M426.402 102.716C428.998 102.716 431.091 102.716 433.436 102.716C433.436 105.151 433.436 107.335 433.436 109.771C426.067 109.771 418.614 109.771 410.91 109.771C410.91 107.503 410.91 105.32 410.91 102.8C413.255 102.8 415.516 102.8 417.944 102.8C417.944 93.4767 417.944 84.5737 417.944 75.4183C415.6 75.4183 413.423 75.4183 410.994 75.4183C410.994 72.9825 410.994 70.799 410.994 68.3631C415.934 68.3631 421.042 68.3631 426.318 68.3631C426.402 69.7069 426.486 71.1346 426.57 72.2267C430.505 70.7151 434.441 68.6988 438.544 67.7752C446.165 66.0951 451.44 70.3788 451.691 78.1904C451.942 86.1692 451.775 94.1486 451.775 102.464C454.287 102.631 456.548 102.884 458.976 103.052C458.976 105.32 458.976 107.419 458.976 109.771C454.12 109.771 449.179 109.771 443.736 109.771C443.736 104.228 443.736 98.5162 443.736 92.8048C443.736 89.8649 443.82 86.925 443.736 83.9857C443.569 80.6256 444.574 76.6782 440.052 75.1666C437.121 74.2424 428.245 77.6024 426.821 80.2061C426.57 80.6257 426.57 81.2975 426.57 81.8016C426.402 88.5211 426.402 95.4085 426.402 102.716Z" fill="#19110D"/>
<path d="M281.699 91.041C269.64 91.041 258.252 91.041 246.863 91.041C246.444 95.9966 249.459 100.7 254.065 102.8C260.596 105.824 267.63 103.892 274.246 97.2565C276.34 98.1801 278.6 99.1882 280.861 100.196C276.172 109.015 263.862 113.383 252.976 110.275C242.09 107.168 236.312 98.6003 237.066 86.7573C237.735 77.0146 245.691 68.4472 255.237 67.0195C265.788 65.5073 276.004 71.2187 279.438 80.7942C280.526 83.9858 280.861 87.3453 281.699 91.041ZM246.612 84.8256C255.405 84.8256 263.778 84.8256 272.236 84.8256C271.148 78.106 265.788 73.6545 259.173 73.5706C252.557 73.5706 248.035 77.6025 246.612 84.8256Z" fill="#EF5523"/>
<path d="M147.131 102.547C149.643 102.547 151.653 102.547 154.081 102.547C154.081 104.983 154.081 107.167 154.081 109.687C146.88 109.687 139.427 109.687 131.806 109.687C131.806 107.419 131.806 105.235 131.806 102.883C134.151 102.715 136.328 102.631 138.757 102.463C138.757 93.5601 138.757 84.8249 138.757 75.6701C136.495 75.5856 134.235 75.4178 131.806 75.3339C131.806 72.8981 131.806 70.7146 131.806 68.3626C136.914 68.3626 141.855 68.3626 147.047 68.3626C147.131 69.7903 147.215 71.1341 147.298 72.4779C150.983 70.9663 154.5 68.9506 158.268 68.0264C166.726 65.9268 172.253 70.2105 172.587 78.9457C172.838 86.0848 172.671 93.2239 172.755 100.364C172.755 101.035 172.838 101.707 172.922 102.631C175.1 102.799 177.109 102.883 179.454 103.051C179.454 105.403 179.454 107.503 179.454 109.938C174.681 109.938 169.824 109.938 164.464 109.938C164.464 104.227 164.464 98.5996 164.464 92.8882C164.464 90.1167 164.548 87.2608 164.464 84.4893C164.297 81.0453 165.47 76.8455 160.78 75.25C157.849 74.2419 149.14 77.6858 147.633 80.3734C147.382 80.7935 147.215 81.3815 147.215 81.9695C147.131 88.5206 147.131 95.408 147.131 102.547Z" fill="#EF5523"/>
<path d="M43.9635 89.2766C43.8796 101.791 34.4169 111.282 22.0234 111.282C9.29482 111.366 -0.1675 101.624 -8.16741e-06 88.5208C0.167257 75.8381 9.46266 66.8506 22.1073 66.8506C34.9193 66.9351 44.0468 76.3422 43.9635 89.2766ZM8.62519 88.9409C8.62519 97.0881 14.2357 103.135 21.9395 103.135C29.56 103.135 35.3383 97.0881 35.3383 89.0248C35.3383 81.0454 29.476 74.7461 22.0234 74.7461C14.4868 74.6621 8.62519 80.8776 8.62519 88.9409Z" fill="#EF5523"/>
<path d="M86.8373 77.182C87.5075 74.7462 90.6896 71.2183 93.2019 69.7906C100.152 65.7592 107.605 65.6753 114.89 68.8669C119.161 70.7148 120.92 74.4944 120.92 79.0299C121.003 86.673 120.92 94.3162 120.92 102.212C123.515 102.379 125.609 102.631 127.953 102.8C127.953 105.067 127.953 107.083 127.953 109.519C123.432 109.519 118.826 109.519 113.886 109.519C113.802 108.343 113.718 106.999 113.55 105.151C109.029 108.931 104.088 111.451 98.4773 110.359C95.6304 109.771 92.6157 108.343 90.3545 106.495C85.9999 103.051 84.744 96.248 87.5909 91.6286C93.7876 81.6335 102.748 82.5572 112.378 86.3374C112.127 81.9697 114.053 77.5177 109.112 74.8301C104.925 72.5627 100.403 73.8225 95.2953 77.182M105.344 90.6205C103.501 89.8647 101.408 89.7807 99.5659 90.4526C96.1328 91.6286 94.0388 94.1483 94.1227 97.5078C94.2067 102.044 97.8071 104.983 103.25 104.06C106.098 103.555 109.029 102.128 111.457 100.448C114.137 98.6838 113.886 94.7363 111.122 93.1402C109.28 92.1327 107.27 91.3769 105.344 90.6205Z" fill="#EF5523"/>
<path d="M365.606 77.0982C366.277 74.6624 369.459 71.1345 371.971 69.7068C378.921 65.6755 386.374 65.591 393.659 68.7832C397.93 70.6305 399.689 74.4106 399.689 78.9461C399.772 86.5892 399.689 94.2324 399.689 102.128C402.284 102.296 404.378 102.547 406.723 102.716C406.723 104.983 406.723 106.999 406.723 109.435C402.201 109.435 397.595 109.435 392.655 109.435C392.571 108.259 392.487 106.915 392.319 105.067C387.798 108.847 382.857 111.367 377.246 110.275C374.399 109.687 371.385 108.259 369.123 106.411C364.769 102.968 363.513 96.1642 366.36 91.5448C372.557 81.5498 381.517 82.4734 391.147 86.253C390.896 81.8854 392.822 77.4339 387.882 74.7463C383.694 72.4783 379.172 73.7382 374.064 77.0982M384.113 90.4528C382.271 89.697 380.177 89.6131 378.335 90.285C374.902 91.4609 372.808 93.9807 372.892 97.3401C372.976 101.876 376.577 104.815 382.019 103.891C384.867 103.388 387.798 101.959 390.226 100.28C392.906 98.5161 392.655 94.5687 389.891 92.9725C388.049 91.9644 386.039 91.2086 384.113 90.4528Z" fill="#19110D"/>
<path d="M488.117 102.631C490.881 102.631 493.476 102.631 496.24 102.631C496.24 93.4764 496.24 84.6573 496.24 75.5859C493.727 75.5859 491.132 75.5859 488.201 75.5859C488.201 72.9822 488.201 70.7147 488.201 68.195C493.058 68.195 497.914 68.195 502.855 68.195C502.855 70.8826 502.855 73.3184 502.855 75.7543C507.042 68.2789 513.656 66.7667 521.526 67.4386C521.526 70.0429 521.526 72.4781 521.526 75.2502C518.935 75.5019 516.253 75.7542 513.571 76.1738C508.717 76.9302 505.87 79.45 505.367 84.2371C504.697 90.2008 504.614 96.164 504.279 102.463C507.628 102.463 510.39 102.463 513.407 102.463C513.407 105.067 513.407 107.251 513.407 109.771C505.032 109.771 496.742 109.771 488.117 109.771C488.117 107.587 488.117 105.487 488.117 102.631Z" fill="#19110D"/>
<path d="M66.4055 102.716C69.2524 102.716 72.016 102.716 74.9468 102.716C74.9468 105.236 74.9468 107.419 74.9468 109.771C66.4894 109.771 58.1988 109.771 49.6575 109.771C49.6575 107.419 49.6575 105.235 49.6575 102.8C52.3371 102.631 54.9328 102.547 57.6964 102.38C57.6964 93.3087 57.6964 84.5734 57.6964 75.5859C55.0168 75.4181 52.421 75.3342 49.6575 75.1664C49.6575 72.8144 49.6575 70.6303 49.6575 68.1951C54.4305 68.1951 59.1201 68.1951 64.1443 68.1951C64.1443 70.7148 64.1443 73.3185 64.1443 75.8382C68.415 68.3629 75.0307 66.6829 82.9018 67.4387C82.9018 70.1268 82.9018 72.5627 82.9018 75.3342C80.6412 75.5859 78.2966 75.7543 76.0354 76.09C69.6714 77.0142 66.9079 79.7857 66.4894 86.169C66.1543 91.4608 66.4055 96.7521 66.4055 102.716Z" fill="#EF5523"/>
<path d="M467.434 75.5018C465.424 75.4179 463.917 75.334 462.158 75.25C462.158 72.982 462.158 70.7985 462.158 68.2788C463.666 68.1104 465.424 67.9425 467.602 67.7747C465.508 60.5511 471.37 58.1998 475.557 54C475.557 58.9556 475.557 63.1554 475.557 67.8586C478.236 67.8586 480.665 67.8586 483.177 67.8586C483.177 70.4623 483.177 72.6464 483.177 75.1661C480.749 75.1661 478.487 75.1661 475.808 75.1661C475.808 83.8174 475.389 92.1325 475.975 100.448C476.31 104.815 480.246 102.295 483.009 102.379C483.009 104.647 483.009 106.831 483.009 109.183C473.966 113.298 467.601 109.518 467.35 99.6078C467.267 95.5759 467.35 91.4605 467.267 87.4286C467.434 83.649 467.434 79.7015 467.434 75.5018Z" fill="#19110D"/>
<path d="M525.881 77.35C526.556 74.9142 529.737 71.3868 532.249 69.9586C539.2 65.9272 546.651 65.8433 553.937 69.0349C558.206 70.8828 559.964 74.6624 559.964 79.1978C560.049 86.841 559.964 94.4841 559.964 102.38C562.561 102.547 564.653 102.8 567 102.968C567 105.236 567 107.251 567 109.687C562.476 109.687 557.872 109.687 552.933 109.687C552.848 108.511 552.763 107.167 552.598 105.32C548.074 109.099 543.135 111.619 537.522 110.527C534.676 109.939 531.659 108.511 529.402 106.663C525.048 103.219 523.789 96.4165 526.636 91.7965C532.833 81.8015 541.797 82.7257 551.425 86.5053C551.175 82.1377 553.097 77.6862 548.159 74.9981C543.969 72.7306 539.45 73.9905 534.341 77.35M544.388 90.789C542.546 90.0326 540.453 89.9487 538.611 90.6206C535.18 91.7966 533.088 94.3163 533.167 97.6764C533.252 102.212 536.853 105.151 542.296 104.227C545.142 103.723 548.074 102.296 550.501 100.616C553.182 98.8517 552.933 94.9043 550.166 93.3088C548.323 92.3006 546.316 91.5448 544.388 90.789Z" fill="#19110D"/>
</g>
</g>
<defs>
<clipPath id="clip0_312_455">
<rect width="567" height="183" fill="white"/>
</clipPath>
</defs>
</svg>
